<?xml version="1.0" encoding="UTF-8"?>
<svg xmlns="http://www.w3.org/2000/svg" xmlns:xlink="http://www.w3.org/1999/xlink" width="200px" height="78px" viewBox="0 0 201 78" version="1.1">
<g id="surface1">
<path style="fill:none;stroke-width:12;stroke-linecap:butt;stroke-linejoin:miter;stroke:rgb(54.901963%,21.568628%,81.176472%);stroke-opacity:1;stroke-miterlimit:4;" d="M 113.80597 141.147436 L 397.74759 141.147436 " transform="matrix(0.402,0,0,0.402062,0,0)"/>
<path style="fill:none;stroke-width:12;stroke-linecap:butt;stroke-linejoin:miter;stroke:rgb(93.725491%,11.372549%,58.431375%);stroke-opacity:1;stroke-miterlimit:4;" d="M 396.931359 36.996795 L 112.980022 36.996795 " transform="matrix(0.402,0,0,0.402062,0,0)"/>
<path style="fill:none;stroke-width:12;stroke-linecap:butt;stroke-linejoin:miter;stroke:rgb(93.725491%,11.372549%,58.431375%);stroke-opacity:1;stroke-miterlimit:4;" d="M 112.989739 36.996795 L 81.001244 36.996795 C 67.747201 36.996795 57.000155 47.742188 57.000155 61.003906 L 57.000155 117.15004 C 57.000155 130.402043 67.747201 141.147436 81.001244 141.147436 L 127.837376 141.147436 " transform="matrix(0.402,0,0,0.402062,0,0)"/>
<path style="fill:none;stroke-width:12;stroke-linecap:butt;stroke-linejoin:miter;stroke:rgb(54.901963%,21.568628%,81.176472%);stroke-opacity:1;stroke-miterlimit:4;" d="M 382.093439 36.996795 L 419.883007 36.996795 C 433.137049 36.996795 443.884095 47.742188 443.884095 61.003906 L 443.884095 117.266627 C 443.884095 123.601162 441.367382 129.673377 436.887826 134.152244 C 432.408271 138.63111 426.335121 141.147436 420.009328 141.147436 L 396.124845 141.147436 " transform="matrix(0.402,0,0,0.402062,0,0)"/>
<path style=" stroke:none;fill-rule:nonzero;fill:rgb(10.196079%,9.411765%,16.078432%);fill-opacity:1;" d="M 52.121094 67.070312 L 52.121094 71.164062 L 51.503906 71.164062 L 51.503906 67.070312 Z M 58.519531 67.070312 L 58.519531 71.164062 L 57.953125 71.164062 L 55.871094 68.164062 L 55.832031 68.164062 L 55.832031 71.164062 L 55.214844 71.164062 L 55.214844 67.070312 L 55.789062 67.070312 L 57.871094 70.078125 L 57.90625 70.078125 L 57.90625 67.070312 Z M 63.847656 68.148438 C 63.824219 67.957031 63.738281 67.8125 63.582031 67.707031 C 63.429688 67.601562 63.234375 67.546875 63 67.546875 C 62.832031 67.546875 62.6875 67.574219 62.566406 67.628906 C 62.441406 67.679688 62.347656 67.753906 62.277344 67.84375 C 62.210938 67.9375 62.179688 68.039062 62.179688 68.15625 C 62.179688 68.253906 62.199219 68.335938 62.246094 68.40625 C 62.292969 68.476562 62.355469 68.535156 62.429688 68.585938 C 62.503906 68.632812 62.585938 68.671875 62.671875 68.703125 C 62.757812 68.734375 62.84375 68.757812 62.921875 68.777344 L 63.320312 68.882812 C 63.453125 68.914062 63.585938 68.957031 63.722656 69.011719 C 63.859375 69.066406 63.988281 69.136719 64.105469 69.226562 C 64.222656 69.316406 64.316406 69.429688 64.390625 69.558594 C 64.460938 69.691406 64.5 69.851562 64.5 70.035156 C 64.5 70.265625 64.4375 70.472656 64.320312 70.652344 C 64.199219 70.832031 64.027344 70.972656 63.800781 71.078125 C 63.578125 71.179688 63.304688 71.234375 62.984375 71.234375 C 62.675781 71.234375 62.414062 71.183594 62.1875 71.085938 C 61.964844 70.988281 61.789062 70.851562 61.664062 70.671875 C 61.535156 70.492188 61.464844 70.28125 61.453125 70.035156 L 62.074219 70.035156 C 62.085938 70.179688 62.132812 70.304688 62.214844 70.402344 C 62.300781 70.5 62.410156 70.574219 62.542969 70.621094 C 62.675781 70.667969 62.820312 70.691406 62.980469 70.691406 C 63.15625 70.691406 63.308594 70.664062 63.445312 70.609375 C 63.582031 70.554688 63.691406 70.476562 63.769531 70.378906 C 63.847656 70.277344 63.886719 70.160156 63.886719 70.027344 C 63.886719 69.90625 63.851562 69.808594 63.785156 69.730469 C 63.714844 69.652344 63.621094 69.589844 63.503906 69.539062 C 63.390625 69.488281 63.257812 69.441406 63.113281 69.402344 L 62.628906 69.273438 C 62.300781 69.183594 62.039062 69.050781 61.847656 68.878906 C 61.660156 68.707031 61.5625 68.476562 61.5625 68.191406 C 61.5625 67.953125 61.628906 67.75 61.753906 67.574219 C 61.882812 67.398438 62.054688 67.261719 62.273438 67.164062 C 62.492188 67.066406 62.738281 67.015625 63.015625 67.015625 C 63.292969 67.015625 63.535156 67.0625 63.746094 67.160156 C 63.960938 67.257812 64.128906 67.390625 64.25 67.5625 C 64.375 67.730469 64.4375 67.925781 64.441406 68.148438 Z M 67.433594 71.164062 L 67.433594 67.070312 L 68.890625 67.070312 C 69.210938 67.070312 69.472656 67.128906 69.683594 67.246094 C 69.890625 67.359375 70.046875 67.519531 70.152344 67.722656 C 70.257812 67.921875 70.308594 68.144531 70.308594 68.394531 C 70.308594 68.648438 70.253906 68.875 70.148438 69.078125 C 70.046875 69.277344 69.890625 69.433594 69.679688 69.550781 C 69.46875 69.667969 69.207031 69.726562 68.890625 69.726562 L 67.886719 69.726562 L 67.886719 69.203125 L 68.832031 69.203125 C 69.035156 69.203125 69.195312 69.167969 69.324219 69.097656 C 69.449219 69.027344 69.539062 68.929688 69.597656 68.808594 C 69.65625 68.6875 69.6875 68.550781 69.6875 68.394531 C 69.6875 68.242188 69.65625 68.105469 69.597656 67.984375 C 69.539062 67.863281 69.445312 67.769531 69.320312 67.703125 C 69.195312 67.636719 69.03125 67.601562 68.824219 67.601562 L 68.050781 67.601562 L 68.050781 71.164062 Z M 73.84375 67.070312 L 73.84375 71.164062 L 73.226562 71.164062 L 73.226562 67.070312 Z M 76.9375 71.164062 L 76.9375 67.070312 L 78.398438 67.070312 C 78.714844 67.070312 78.976562 67.125 79.1875 67.234375 C 79.398438 67.34375 79.554688 67.496094 79.660156 67.6875 C 79.761719 67.882812 79.8125 68.101562 79.8125 68.355469 C 79.8125 68.605469 79.761719 68.824219 79.65625 69.015625 C 79.550781 69.207031 79.394531 69.351562 79.183594 69.457031 C 78.976562 69.5625 78.710938 69.617188 78.394531 69.617188 L 77.289062 69.617188 L 77.289062 69.085938 L 78.339844 69.085938 C 78.539062 69.085938 78.703125 69.054688 78.828125 69 C 78.953125 68.941406 79.046875 68.859375 79.105469 68.75 C 79.164062 68.640625 79.191406 68.507812 79.191406 68.355469 C 79.191406 68.199219 79.164062 68.066406 79.101562 67.953125 C 79.042969 67.839844 78.953125 67.753906 78.824219 67.691406 C 78.699219 67.632812 78.535156 67.601562 78.332031 67.601562 L 77.554688 67.601562 L 77.554688 71.164062 Z M 78.960938 69.316406 L 79.96875 71.164062 L 79.265625 71.164062 L 78.277344 69.316406 Z M 83.378906 67.070312 L 83.378906 71.164062 L 82.761719 71.164062 L 82.761719 67.070312 Z M 89.777344 67.070312 L 89.777344 71.164062 L 89.207031 71.164062 L 87.128906 68.164062 L 87.089844 68.164062 L 87.089844 71.164062 L 86.472656 71.164062 L 86.472656 67.070312 L 87.042969 67.070312 L 89.125 70.078125 L 89.164062 70.078125 L 89.164062 67.070312 Z M 95.640625 68.363281 C 95.605469 68.242188 95.550781 68.132812 95.484375 68.039062 C 95.421875 67.941406 95.34375 67.859375 95.257812 67.789062 C 95.167969 67.722656 95.066406 67.667969 94.949219 67.632812 C 94.835938 67.597656 94.710938 67.578125 94.578125 67.578125 C 94.347656 67.578125 94.140625 67.636719 93.953125 67.757812 C 93.769531 67.875 93.621094 68.050781 93.511719 68.277344 C 93.40625 68.507812 93.355469 68.785156 93.355469 69.117188 C 93.355469 69.449219 93.40625 69.726562 93.515625 69.957031 C 93.625 70.1875 93.769531 70.359375 93.960938 70.480469 C 94.148438 70.597656 94.359375 70.65625 94.601562 70.65625 C 94.824219 70.65625 95.015625 70.613281 95.183594 70.519531 C 95.347656 70.429688 95.476562 70.304688 95.566406 70.136719 C 95.660156 69.972656 95.707031 69.773438 95.707031 69.550781 L 95.867188 69.578125 L 94.695312 69.578125 L 94.695312 69.070312 L 96.304688 69.070312 L 96.304688 69.535156 C 96.304688 69.878906 96.230469 70.179688 96.085938 70.429688 C 95.9375 70.683594 95.738281 70.878906 95.480469 71.015625 C 95.222656 71.152344 94.929688 71.222656 94.601562 71.222656 C 94.230469 71.222656 93.90625 71.136719 93.625 70.964844 C 93.347656 70.792969 93.128906 70.550781 92.972656 70.238281 C 92.816406 69.925781 92.738281 69.550781 92.738281 69.121094 C 92.738281 68.792969 92.785156 68.5 92.875 68.242188 C 92.964844 67.980469 93.09375 67.761719 93.257812 67.578125 C 93.421875 67.394531 93.617188 67.257812 93.839844 67.160156 C 94.0625 67.0625 94.308594 67.015625 94.574219 67.015625 C 94.792969 67.015625 95 67.046875 95.191406 67.113281 C 95.382812 67.179688 95.554688 67.269531 95.703125 67.390625 C 95.851562 67.511719 95.976562 67.652344 96.074219 67.820312 C 96.175781 67.984375 96.242188 68.164062 96.277344 68.363281 Z M 106.367188 68.402344 L 105.742188 68.402344 C 105.71875 68.269531 105.675781 68.152344 105.609375 68.050781 C 105.542969 67.949219 105.464844 67.863281 105.367188 67.792969 C 105.273438 67.722656 105.167969 67.667969 105.050781 67.632812 C 104.9375 67.597656 104.8125 67.578125 104.679688 67.578125 C 104.445312 67.578125 104.234375 67.636719 104.046875 67.757812 C 103.863281 67.875 103.714844 68.050781 103.609375 68.277344 C 103.5 68.507812 103.449219 68.789062 103.449219 69.117188 C 103.449219 69.453125 103.5 69.730469 103.609375 69.960938 C 103.714844 70.191406 103.863281 70.363281 104.050781 70.480469 C 104.238281 70.597656 104.445312 70.65625 104.679688 70.65625 C 104.808594 70.65625 104.933594 70.640625 105.046875 70.605469 C 105.164062 70.570312 105.269531 70.515625 105.363281 70.449219 C 105.460938 70.378906 105.539062 70.292969 105.605469 70.195312 C 105.671875 70.09375 105.71875 69.976562 105.742188 69.847656 L 106.367188 69.847656 C 106.332031 70.046875 106.269531 70.234375 106.171875 70.402344 C 106.078125 70.570312 105.957031 70.714844 105.808594 70.839844 C 105.660156 70.960938 105.488281 71.054688 105.300781 71.121094 C 105.109375 71.1875 104.902344 71.222656 104.675781 71.222656 C 104.320312 71.222656 104.003906 71.136719 103.726562 70.96875 C 103.449219 70.800781 103.234375 70.558594 103.074219 70.242188 C 102.914062 69.929688 102.835938 69.554688 102.835938 69.117188 C 102.835938 68.679688 102.914062 68.304688 103.074219 67.992188 C 103.234375 67.679688 103.453125 67.4375 103.730469 67.269531 C 104.007812 67.101562 104.324219 67.015625 104.675781 67.015625 C 104.894531 67.015625 105.09375 67.046875 105.285156 67.109375 C 105.472656 67.171875 105.640625 67.261719 105.792969 67.382812 C 105.945312 67.5 106.066406 67.644531 106.167969 67.816406 C 106.265625 67.988281 106.332031 68.183594 106.367188 68.402344 Z M 109.300781 71.164062 L 109.300781 67.070312 L 110.757812 67.070312 C 111.078125 67.070312 111.339844 67.125 111.550781 67.234375 C 111.757812 67.34375 111.917969 67.496094 112.019531 67.6875 C 112.125 67.882812 112.175781 68.101562 112.175781 68.355469 C 112.175781 68.605469 112.125 68.824219 112.019531 69.015625 C 111.914062 69.207031 111.757812 69.351562 111.546875 69.457031 C 111.335938 69.5625 111.074219 69.617188 110.757812 69.617188 L 109.652344 69.617188 L 109.652344 69.085938 L 110.703125 69.085938 C 110.902344 69.085938 111.0625 69.054688 111.1875 69 C 111.316406 68.941406 111.410156 68.859375 111.46875 68.75 C 111.527344 68.640625 111.554688 68.507812 111.554688 68.355469 C 111.554688 68.199219 111.523438 68.066406 111.464844 67.953125 C 111.40625 67.839844 111.3125 67.753906 111.1875 67.691406 C 111.0625 67.632812 110.898438 67.601562 110.695312 67.601562 L 109.917969 67.601562 L 109.917969 71.164062 Z M 111.320312 69.316406 L 112.332031 71.164062 L 111.628906 71.164062 L 110.636719 69.316406 Z M 115.121094 71.164062 L 115.121094 67.070312 L 117.6875 67.070312 L 117.6875 67.601562 L 115.738281 67.601562 L 115.738281 68.851562 L 117.554688 68.851562 L 117.554688 69.378906 L 115.738281 69.378906 L 115.738281 70.632812 L 117.710938 70.632812 L 117.710938 71.164062 Z M 121.054688 71.164062 L 120.398438 71.164062 L 121.871094 67.070312 L 122.585938 67.070312 L 124.058594 71.164062 L 123.402344 71.164062 L 122.246094 67.816406 L 122.214844 67.816406 Z M 121.164062 69.5625 L 123.289062 69.5625 L 123.289062 70.082031 L 121.164062 70.082031 Z M 126.160156 67.601562 L 126.160156 67.070312 L 129.328125 67.070312 L 129.328125 67.601562 L 128.050781 67.601562 L 128.050781 71.164062 L 127.433594 71.164062 L 127.433594 67.601562 Z M 132.839844 67.070312 L 132.839844 71.164062 L 132.222656 71.164062 L 132.222656 67.070312 Z M 136.292969 67.070312 L 137.429688 70.40625 L 137.476562 70.40625 L 138.617188 67.070312 L 139.28125 67.070312 L 137.808594 71.164062 L 137.097656 71.164062 L 135.625 67.070312 Z M 142.6875 67.070312 L 142.6875 71.164062 L 142.070312 71.164062 L 142.070312 67.070312 Z M 145.578125 67.601562 L 145.578125 67.070312 L 148.746094 67.070312 L 148.746094 67.601562 L 147.46875 67.601562 L 147.46875 71.164062 L 146.855469 71.164062 L 146.855469 67.601562 Z M 151.324219 67.070312 L 152.027344 67.070312 L 153.097656 68.933594 L 153.140625 68.933594 L 154.210938 67.070312 L 154.910156 67.070312 L 153.425781 69.558594 L 153.425781 71.164062 L 152.8125 71.164062 L 152.8125 69.558594 Z M 151.324219 67.070312 "/>
<path style=" stroke:none;fill-rule:nonzero;fill:rgb(7.450981%,5.098039%,26.666668%);fill-opacity:1;" d="M 55.792969 36.714844 C 55.792969 38.265625 55.46875 39.628906 54.828125 40.800781 C 54.1875 41.972656 53.28125 42.882812 52.121094 43.53125 C 50.96875 44.179688 49.613281 44.503906 48.0625 44.503906 C 46.507812 44.503906 45.148438 44.179688 43.972656 43.53125 C 42.800781 42.882812 41.890625 41.972656 41.234375 40.800781 C 40.585938 39.628906 40.265625 38.265625 40.265625 36.714844 C 40.265625 35.144531 40.585938 33.773438 41.234375 32.601562 C 41.890625 31.425781 42.800781 30.519531 43.972656 29.871094 C 45.148438 29.214844 46.507812 28.890625 48.0625 28.890625 C 49.613281 28.890625 50.96875 29.214844 52.121094 29.871094 C 53.28125 30.519531 54.1875 31.425781 54.828125 32.601562 C 55.46875 33.773438 55.792969 35.144531 55.792969 36.714844 Z M 48.0625 42.082031 C 49.058594 42.082031 49.929688 41.855469 50.664062 41.402344 C 51.402344 40.953125 51.976562 40.324219 52.390625 39.519531 C 52.804688 38.710938 53.011719 37.773438 53.011719 36.714844 C 53.011719 35.636719 52.804688 34.691406 52.390625 33.882812 C 51.976562 33.074219 51.402344 32.441406 50.664062 31.988281 C 49.929688 31.535156 49.058594 31.308594 48.0625 31.308594 C 47.066406 31.308594 46.195312 31.535156 45.441406 31.988281 C 44.6875 32.441406 44.101562 33.074219 43.6875 33.882812 C 43.273438 34.691406 43.070312 35.636719 43.070312 36.714844 C 43.070312 37.773438 43.273438 38.710938 43.6875 39.519531 C 44.101562 40.324219 44.6875 40.953125 45.441406 41.402344 C 46.195312 41.855469 47.066406 42.082031 48.0625 42.082031 Z M 48.0625 42.082031 "/>
<path style=" stroke:none;fill-rule:nonzero;fill:rgb(7.450981%,5.098039%,26.666668%);fill-opacity:1;" d="M 72.304688 40.609375 C 72.304688 40.765625 72.28125 40.933594 72.230469 41.109375 C 72.183594 41.285156 72.089844 41.449219 71.945312 41.605469 C 71.46875 42.15625 70.890625 42.65625 70.210938 43.105469 C 69.527344 43.546875 68.804688 43.890625 68.042969 44.132812 C 67.28125 44.378906 66.53125 44.503906 65.789062 44.503906 C 64.21875 44.503906 62.859375 44.171875 61.710938 43.507812 C 60.558594 42.84375 59.671875 41.914062 59.046875 40.71875 C 58.421875 39.515625 58.125 38.132812 58.160156 36.5625 C 58.160156 35.027344 58.480469 33.6875 59.121094 32.542969 C 59.761719 31.390625 60.664062 30.496094 61.820312 29.851562 C 62.976562 29.210938 64.320312 28.890625 65.855469 28.890625 C 66.90625 28.890625 67.941406 29.082031 68.964844 29.460938 C 69.984375 29.839844 70.84375 30.402344 71.542969 31.144531 C 71.871094 31.496094 72.019531 31.847656 71.988281 32.199219 C 71.957031 32.546875 71.8125 32.824219 71.550781 33.035156 C 71.285156 33.25 70.96875 33.351562 70.597656 33.335938 C 70.226562 33.320312 69.867188 33.128906 69.515625 32.757812 C 69.011719 32.222656 68.441406 31.839844 67.800781 31.601562 C 67.15625 31.363281 66.507812 31.242188 65.855469 31.242188 C 64.871094 31.242188 64.003906 31.46875 63.25 31.921875 C 62.5 32.375 61.921875 33.007812 61.507812 33.816406 C 61.09375 34.617188 60.890625 35.5625 60.890625 36.636719 C 60.90625 37.699219 61.121094 38.644531 61.535156 39.46875 C 61.945312 40.289062 62.523438 40.933594 63.257812 41.402344 C 63.996094 41.871094 64.847656 42.109375 65.8125 42.109375 C 66.511719 42.109375 67.203125 41.953125 67.890625 41.648438 C 68.582031 41.335938 69.15625 40.910156 69.617188 40.375 L 69.617188 37.945312 L 66.140625 37.945312 C 65.699219 37.945312 65.371094 37.828125 65.152344 37.59375 C 64.9375 37.355469 64.835938 37.089844 64.835938 36.804688 C 64.835938 36.488281 64.9375 36.207031 65.152344 35.960938 C 65.371094 35.714844 65.699219 35.589844 66.140625 35.589844 L 70.871094 35.589844 C 71.429688 35.589844 71.804688 35.710938 72.003906 35.949219 C 72.203125 36.183594 72.304688 36.492188 72.304688 36.871094 Z M 72.304688 40.609375 "/>
<path style=" stroke:none;fill-rule:nonzero;fill:rgb(7.450981%,5.098039%,26.666668%);fill-opacity:1;" d="M 75.789062 30.40625 C 75.789062 29.964844 75.933594 29.640625 76.21875 29.433594 C 76.503906 29.230469 76.816406 29.125 77.164062 29.125 C 77.515625 29.125 77.835938 29.230469 78.128906 29.433594 C 78.421875 29.640625 78.570312 29.964844 78.570312 30.40625 L 78.570312 43.054688 C 78.570312 43.453125 78.421875 43.753906 78.128906 43.957031 C 77.835938 44.164062 77.515625 44.269531 77.164062 44.269531 C 76.816406 44.269531 76.503906 44.171875 76.21875 43.976562 C 75.933594 43.773438 75.789062 43.46875 75.789062 43.054688 Z M 75.789062 30.40625 "/>
<path style=" stroke:none;fill-rule:nonzero;fill:rgb(7.450981%,5.098039%,26.666668%);fill-opacity:1;" d="M 91.664062 30.289062 C 91.664062 29.910156 91.816406 29.621094 92.125 29.425781 C 92.4375 29.222656 92.765625 29.125 93.113281 29.125 C 93.476562 29.125 93.796875 29.214844 94.078125 29.398438 C 94.355469 29.582031 94.496094 29.875 94.496094 30.289062 L 94.496094 42.84375 C 94.496094 43.320312 94.328125 43.675781 93.992188 43.917969 C 93.65625 44.152344 93.292969 44.269531 92.894531 44.269531 C 92.628906 44.269531 92.363281 44.207031 92.101562 44.085938 C 91.84375 43.957031 91.632812 43.789062 91.472656 43.582031 L 84.203125 34.214844 L 84.292969 35.539062 L 84.292969 43.011719 C 84.292969 43.453125 84.144531 43.773438 83.851562 43.976562 C 83.558594 44.171875 83.242188 44.269531 82.894531 44.269531 C 82.527344 44.269531 82.195312 44.171875 81.898438 43.976562 C 81.609375 43.773438 81.464844 43.453125 81.464844 43.011719 L 81.464844 30.574219 C 81.464844 30.101562 81.609375 29.738281 81.898438 29.492188 C 82.195312 29.246094 82.535156 29.125 82.921875 29.125 C 83.214844 29.125 83.46875 29.1875 83.683594 29.308594 C 83.902344 29.425781 84.105469 29.601562 84.292969 29.835938 L 91.757812 39.535156 L 91.664062 37.945312 Z M 91.664062 30.289062 "/>
<path style=" stroke:none;fill-rule:nonzero;fill:rgb(7.450981%,5.098039%,26.666668%);fill-opacity:1;" d="M 97.054688 40.675781 C 96.941406 40.21875 97.050781 39.855469 97.378906 39.585938 C 97.714844 39.316406 98.089844 39.183594 98.503906 39.183594 C 98.820312 39.183594 99.101562 39.257812 99.347656 39.410156 C 99.59375 39.5625 99.746094 39.792969 99.808594 40.105469 C 99.980469 40.613281 100.308594 41.007812 100.789062 41.285156 C 101.273438 41.5625 101.820312 41.75 102.421875 41.855469 C 103.023438 41.957031 103.589844 42.007812 104.113281 42.007812 C 104.527344 42.007812 104.976562 41.976562 105.460938 41.914062 C 105.953125 41.855469 106.417969 41.738281 106.859375 41.570312 C 107.308594 41.402344 107.671875 41.167969 107.957031 40.867188 C 108.246094 40.566406 108.394531 40.179688 108.394531 39.703125 C 108.394531 39.195312 108.179688 38.824219 107.757812 38.589844 C 107.339844 38.351562 106.800781 38.179688 106.148438 38.078125 C 105.5 37.972656 104.820312 37.898438 104.113281 37.851562 C 103.304688 37.785156 102.492188 37.691406 101.675781 37.566406 C 100.859375 37.441406 100.113281 37.230469 99.441406 36.949219 C 98.765625 36.664062 98.21875 36.25 97.808594 35.699219 C 97.398438 35.152344 97.195312 34.425781 97.195312 33.523438 C 97.195312 32.714844 97.398438 32.015625 97.808594 31.425781 C 98.21875 30.839844 98.757812 30.363281 99.425781 29.996094 C 100.09375 29.621094 100.816406 29.347656 101.59375 29.164062 C 102.367188 28.980469 103.128906 28.890625 103.871094 28.890625 C 104.695312 28.890625 105.558594 28.984375 106.460938 29.175781 C 107.363281 29.363281 108.191406 29.703125 108.945312 30.1875 C 109.699219 30.667969 110.257812 31.34375 110.621094 32.214844 C 110.75 32.664062 110.65625 33.035156 110.34375 33.328125 C 110.039062 33.621094 109.679688 33.765625 109.273438 33.765625 C 109.015625 33.765625 108.773438 33.707031 108.542969 33.589844 C 108.3125 33.46875 108.152344 33.300781 108.058594 33.09375 C 107.867188 32.605469 107.535156 32.238281 107.0625 32.003906 C 106.585938 31.765625 106.0625 31.609375 105.488281 31.535156 C 104.917969 31.464844 104.386719 31.425781 103.898438 31.425781 C 103.578125 31.425781 103.199219 31.460938 102.765625 31.527344 C 102.332031 31.589844 101.90625 31.703125 101.492188 31.863281 C 101.085938 32.019531 100.742188 32.238281 100.460938 32.515625 C 100.183594 32.789062 100.042969 33.132812 100.042969 33.546875 C 100.042969 34.054688 100.242188 34.4375 100.636719 34.695312 C 101.035156 34.945312 101.5625 35.121094 102.222656 35.214844 C 102.878906 35.308594 103.597656 35.386719 104.375 35.449219 C 105.199219 35.527344 106.019531 35.621094 106.835938 35.722656 C 107.648438 35.824219 108.390625 36.007812 109.054688 36.269531 C 109.71875 36.53125 110.25 36.929688 110.644531 37.457031 C 111.042969 37.992188 111.242188 38.730469 111.242188 39.679688 C 111.242188 40.632812 111.015625 41.421875 110.5625 42.039062 C 110.109375 42.65625 109.519531 43.144531 108.789062 43.507812 C 108.0625 43.871094 107.285156 44.125 106.460938 44.277344 C 105.636719 44.425781 104.855469 44.503906 104.113281 44.503906 C 103.496094 44.503906 102.816406 44.445312 102.085938 44.328125 C 101.359375 44.210938 100.652344 44.007812 99.960938 43.714844 C 99.273438 43.421875 98.667969 43.027344 98.144531 42.535156 C 97.625 42.042969 97.257812 41.425781 97.054688 40.675781 Z M 97.054688 40.675781 "/>
<path style=" stroke:none;fill-rule:nonzero;fill:rgb(7.450981%,5.098039%,26.666668%);fill-opacity:1;" d="M 116.609375 40.0625 L 116.609375 43.054688 C 116.609375 43.46875 116.460938 43.773438 116.164062 43.976562 C 115.875 44.171875 115.5625 44.269531 115.226562 44.269531 C 114.878906 44.269531 114.566406 44.171875 114.289062 43.976562 C 114.015625 43.773438 113.878906 43.476562 113.878906 43.078125 L 113.878906 30.363281 C 113.878906 29.996094 114.011719 29.699219 114.28125 29.46875 C 114.546875 29.238281 114.871094 29.125 115.25 29.125 L 120.101562 29.125 C 121.417969 29.125 122.542969 29.359375 123.476562 29.828125 C 124.414062 30.296875 125.128906 30.949219 125.621094 31.777344 C 126.109375 32.613281 126.355469 33.589844 126.355469 34.710938 C 126.355469 36.316406 125.800781 37.605469 124.691406 38.589844 C 123.578125 39.574219 122.027344 40.0625 120.035156 40.0625 Z M 116.609375 31.476562 L 116.609375 37.710938 L 120.035156 37.710938 C 121.207031 37.710938 122.097656 37.4375 122.714844 36.890625 C 123.332031 36.34375 123.644531 35.617188 123.644531 34.710938 C 123.644531 33.730469 123.335938 32.945312 122.722656 32.355469 C 122.113281 31.769531 121.25 31.476562 120.125 31.476562 Z M 116.609375 31.476562 "/>
<path style=" stroke:none;fill-rule:nonzero;fill:rgb(7.450981%,5.098039%,26.666668%);fill-opacity:1;" d="M 129.035156 30.40625 C 129.035156 29.964844 129.179688 29.640625 129.464844 29.433594 C 129.746094 29.230469 130.0625 29.125 130.410156 29.125 C 130.761719 29.125 131.082031 29.230469 131.371094 29.433594 C 131.667969 29.640625 131.816406 29.964844 131.816406 30.40625 L 131.816406 43.054688 C 131.816406 43.453125 131.667969 43.753906 131.371094 43.957031 C 131.082031 44.164062 130.761719 44.269531 130.410156 44.269531 C 130.0625 44.269531 129.746094 44.171875 129.464844 43.976562 C 129.179688 43.773438 129.035156 43.46875 129.035156 43.054688 Z M 129.035156 30.40625 "/>
<path style=" stroke:none;fill-rule:nonzero;fill:rgb(7.450981%,5.098039%,26.666668%);fill-opacity:1;" d="M 147.171875 41.941406 C 147.53125 42.320312 147.707031 42.6875 147.691406 43.046875 C 147.671875 43.402344 147.535156 43.695312 147.28125 43.925781 C 147.027344 44.15625 146.730469 44.269531 146.390625 44.277344 C 146.050781 44.289062 145.730469 44.132812 145.429688 43.816406 L 141.175781 39.277344 L 137.589844 39.277344 L 137.589844 43.027344 C 137.589844 43.425781 137.441406 43.730469 137.144531 43.949219 C 136.855469 44.164062 136.542969 44.269531 136.207031 44.269531 C 135.859375 44.269531 135.546875 44.164062 135.261719 43.957031 C 134.976562 43.753906 134.835938 43.453125 134.835938 43.054688 L 134.835938 30.363281 C 134.835938 29.996094 134.960938 29.699219 135.21875 29.46875 C 135.480469 29.238281 135.808594 29.125 136.207031 29.125 L 141.507812 29.125 C 142.9375 29.125 144.125 29.355469 145.078125 29.820312 C 146.023438 30.277344 146.738281 30.894531 147.210938 31.671875 C 147.6875 32.445312 147.925781 33.308594 147.925781 34.257812 C 147.925781 35.371094 147.625 36.34375 147.027344 37.171875 C 146.4375 38.007812 145.53125 38.59375 144.316406 38.941406 Z M 137.589844 36.972656 L 141.535156 36.972656 C 142.800781 36.972656 143.730469 36.707031 144.316406 36.175781 C 144.902344 35.648438 145.175781 35.015625 145.144531 34.285156 C 145.128906 33.492188 144.800781 32.835938 144.164062 32.316406 C 143.53125 31.792969 142.65625 31.527344 141.535156 31.527344 L 137.589844 31.527344 Z M 137.589844 36.972656 "/>
<path style=" stroke:none;fill-rule:nonzero;fill:rgb(7.450981%,5.098039%,26.666668%);fill-opacity:1;" d="M 157.09375 28.890625 C 157.347656 28.890625 157.582031 28.945312 157.808594 29.046875 C 158.03125 29.148438 158.195312 29.316406 158.308594 29.550781 L 165.035156 42.742188 C 165.242188 43.097656 165.296875 43.402344 165.203125 43.664062 C 165.105469 43.921875 164.921875 44.125 164.648438 44.277344 C 164.382812 44.425781 164.097656 44.503906 163.796875 44.503906 C 163.578125 44.503906 163.351562 44.445312 163.117188 44.328125 C 162.886719 44.210938 162.710938 44.039062 162.589844 43.816406 L 160.921875 40.515625 L 153.269531 40.515625 L 151.601562 43.816406 C 151.496094 44.066406 151.324219 44.242188 151.089844 44.34375 C 150.859375 44.449219 150.636719 44.503906 150.421875 44.503906 C 150.148438 44.503906 149.878906 44.425781 149.617188 44.277344 C 149.359375 44.125 149.171875 43.921875 149.054688 43.664062 C 148.933594 43.402344 148.945312 43.121094 149.089844 42.820312 L 155.855469 29.550781 C 155.984375 29.285156 156.144531 29.105469 156.34375 29.023438 C 156.542969 28.9375 156.792969 28.890625 157.09375 28.890625 Z M 157.09375 32.902344 L 154.433594 38.203125 L 159.757812 38.203125 Z M 157.09375 32.902344 "/>
</g>
</svg>
